<?xml version="1.0" encoding="UTF-8"?>
<svg xmlns="http://www.w3.org/2000/svg" width="1295" height="472" viewBox="0 0 1295 472">
<path d="M65 0V723H187V0Z" transform="translate(60.0,330) scale(0.22, -0.22)" fill="#FFFFFF"/>
<path d="M299 -12Q213 -12 155.0 17.5Q97 47 68.0 108.0Q39 169 39 263Q39 358 68.0 418.5Q97 479 155.0 508.5Q213 538 299 538Q386 538 443.5 508.5Q501 479 530.0 418.5Q559 358 559 263Q559 169 530.0 108.0Q501 47 443.5 17.5Q386 -12 299 -12ZM299 88Q347 88 376.5 106.5Q406 125 419.5 162.5Q433 200 433 256V270Q433 326 419.5 363.5Q406 401 376.5 419.5Q347 438 299 438Q251 438 221.5 419.5Q192 401 178.5 363.5Q165 326 165 270V256Q165 200 178.5 162.5Q192 125 221.5 106.5Q251 88 299 88Z" transform="translate(115.44,330) scale(0.22, -0.22)" fill="#FFFFFF"/>
<path d="M200 0 5 526H133L218 289Q224 272 232.5 243.5Q241 215 250.0 184.5Q259 154 265 129H270Q276 152 284.0 182.0Q292 212 300.5 241.0Q309 270 316 289L400 526H524L328 0Z" transform="translate(247.0,330) scale(0.22, -0.22)" fill="#FFFFFF"/>
<path d="M291 -12Q207 -12 151.0 17.5Q95 47 67.0 108.0Q39 169 39 263Q39 358 67.0 418.5Q95 479 151.0 508.5Q207 538 291 538Q367 538 418.5 509.5Q470 481 496.0 422.0Q522 363 522 269V233H164Q166 184 179.0 150.5Q192 117 219.5 100.5Q247 84 292 84Q315 84 335.0 90.0Q355 96 370.0 108.5Q385 121 393.5 140.0Q402 159 402 184H522Q522 134 504.5 97.0Q487 60 455.5 36.0Q424 12 382.0 0.0Q340 -12 291 -12ZM166 319H395Q395 352 387.5 375.0Q380 398 366.5 413.0Q353 428 334.0 434.5Q315 441 291 441Q252 441 225.5 428.0Q199 415 185.0 388.0Q171 361 166 319Z" transform="translate(363.38,330) scale(0.22, -0.22)" fill="#FFFFFF"/>
<path d="" transform="translate(486.8,330) scale(0.22, -0.22)" fill="#FFFFFF"/>
<path d="M65 0V723H187V0Z" transform="translate(530.8,330) scale(0.22, -0.22)" fill="#FFFFFF"/>
<path d="M291 -12Q207 -12 151.0 17.5Q95 47 67.0 108.0Q39 169 39 263Q39 358 67.0 418.5Q95 479 151.0 508.5Q207 538 291 538Q367 538 418.5 509.5Q470 481 496.0 422.0Q522 363 522 269V233H164Q166 184 179.0 150.5Q192 117 219.5 100.5Q247 84 292 84Q315 84 335.0 90.0Q355 96 370.0 108.5Q385 121 393.5 140.0Q402 159 402 184H522Q522 134 504.5 97.0Q487 60 455.5 36.0Q424 12 382.0 0.0Q340 -12 291 -12ZM166 319H395Q395 352 387.5 375.0Q380 398 366.5 413.0Q353 428 334.0 434.5Q315 441 291 441Q252 441 225.5 428.0Q199 415 185.0 388.0Q171 361 166 319Z" transform="translate(586.24,330) scale(0.22, -0.22)" fill="#FFFFFF"/>
<path d="M204 -12Q155 -12 127.0 7.5Q99 27 87.5 57.5Q76 88 76 120V426H13V526H79L101 673H198V526H289V426H198V132Q198 111 209.0 99.5Q220 88 242 88H289V4Q279 0 264.5 -3.5Q250 -7 234.0 -9.5Q218 -12 204 -12Z" transform="translate(709.66,330) scale(0.22, -0.22)" fill="#FFFFFF"/>
<path d="M204 -12Q155 -12 127.0 7.5Q99 27 87.5 57.5Q76 88 76 120V426H13V526H79L101 673H198V526H289V426H198V132Q198 111 209.0 99.5Q220 88 242 88H289V4Q279 0 264.5 -3.5Q250 -7 234.0 -9.5Q218 -12 204 -12Z" transform="translate(778.74,330) scale(0.22, -0.22)" fill="#FFFFFF"/>
<path d="M291 -12Q207 -12 151.0 17.5Q95 47 67.0 108.0Q39 169 39 263Q39 358 67.0 418.5Q95 479 151.0 508.5Q207 538 291 538Q367 538 418.5 509.5Q470 481 496.0 422.0Q522 363 522 269V233H164Q166 184 179.0 150.5Q192 117 219.5 100.5Q247 84 292 84Q315 84 335.0 90.0Q355 96 370.0 108.5Q385 121 393.5 140.0Q402 159 402 184H522Q522 134 504.5 97.0Q487 60 455.5 36.0Q424 12 382.0 0.0Q340 -12 291 -12ZM166 319H395Q395 352 387.5 375.0Q380 398 366.5 413.0Q353 428 334.0 434.5Q315 441 291 441Q252 441 225.5 428.0Q199 415 185.0 388.0Q171 361 166 319Z" transform="translate(847.82,330) scale(0.22, -0.22)" fill="#FFFFFF"/>
<path d="M65 0V526H167L177 443H184Q194 468 208.5 489.5Q223 511 246.0 524.5Q269 538 302 538Q318 538 331.5 535.0Q345 532 352 529V414H315Q284 414 260.0 405.5Q236 397 219.5 379.0Q203 361 195.0 334.0Q187 307 187 271V0Z" transform="translate(971.24,330) scale(0.22, -0.22)" fill="#FFFFFF"/>
<path d="M270 -12Q213 -12 170.0 0.5Q127 13 98.0 35.0Q69 57 54.5 86.5Q40 116 40 151Q40 156 40.5 160.0Q41 164 41 166H161Q161 164 161.0 162.0Q161 160 161 158Q162 131 178.0 114.5Q194 98 220.0 91.0Q246 84 275 84Q301 84 324.5 89.5Q348 95 363.5 107.5Q379 120 379 140Q379 166 359.0 180.0Q339 194 306.5 203.0Q274 212 237 222Q204 231 171.0 242.0Q138 253 111.5 270.0Q85 287 68.5 314.0Q52 341 52 381Q52 420 69.0 449.0Q86 478 116.0 497.5Q146 517 187.0 527.0Q228 537 276 537Q323 537 361.5 527.0Q400 517 428.5 498.5Q457 480 472.5 453.5Q488 427 488 395Q488 388 487.5 381.0Q487 374 487 373H368V380Q368 399 356.5 412.5Q345 426 323.5 434.0Q302 442 270 442Q246 442 228.0 438.0Q210 434 198.5 427.0Q187 420 181.0 411.0Q175 402 175 391Q175 372 190.0 361.0Q205 350 230.5 342.0Q256 334 286 325Q322 315 360.0 304.5Q398 294 430.5 278.0Q463 262 483.0 233.0Q503 204 503 156Q503 110 485.5 77.5Q468 45 436.5 25.5Q405 6 362.5 -3.0Q320 -12 270 -12Z" transform="translate(1050.88,330) scale(0.22, -0.22)" fill="#FFFFFF"/>
<path d="M86 0V128H213V0Z" transform="translate(1169.9,330) scale(0.22, -0.22)" fill="#FFFFFF"/>
</svg>